<svg viewBox="0 0 40 36" width="40" height="36" fill="none" xmlns="http://www.w3.org/2000/svg">
<path d="M20.684 0.204088C20.5692 0.00728994 20.3232 -0.058311 20.1428 0.056488C20.0772 0.0892878 20.028 0.138489 19.9952 0.204088L0.0529805 35.2834C-0.0618186 35.4802 0.0201797 35.7262 0.200578 35.8246C0.266178 35.8574 0.331777 35.8738 0.397376 35.8738H40.5934C40.8066 35.8738 40.987 35.6934 40.987 35.4802C40.987 35.4146 40.9706 35.3326 40.9378 35.2834L20.684 0.204088ZM16.3544 22.9507L23.5048 20.9991L21.5696 28.1003L16.3544 22.9507Z" fill="white"/>
<path d="M0.397376 35.8901H8.48251L15.9116 7.40356L0.0529804 35.2997C-0.0618186 35.4965 0.0201797 35.7425 0.200578 35.8409C0.266178 35.8737 0.331777 35.8901 0.397376 35.8901Z" fill="white"/>
<path d="M36.9854 28.4282L8.48248 35.8902H40.5934C40.8066 35.8902 40.987 35.7098 40.987 35.4966C40.987 35.431 40.9706 35.349 40.9378 35.2998L36.9854 28.4282Z" fill="white"/>
<path d="M32.6067 24.0658L36.9855 28.4282L20.7004 0.220444C20.5856 0.0236455 20.3396 -0.0419529 20.1592 0.0728461C20.0936 0.105646 20.0444 0.154844 20.0116 0.220444L15.928 7.41998L32.6067 24.0494V24.0658Z" fill="white"/>
<path d="M8.48248 35.8901L14.3536 34.3485L14.3208 13.4879L8.48248 35.8901Z" fill="white"/>
<path d="M14.3208 13.4879L32.6066 24.0658L15.9116 7.40356L14.3208 13.4879Z" fill="white"/>
<path d="M14.3536 34.3485L36.9854 28.4282L32.6067 24.0658L14.3536 34.3485Z" fill="white"/>
<path d="M14.3537 34.3486L18.2732 32.1346L14.3373 17.9159L14.3537 34.3486Z" fill="white"/>
<path d="M32.6067 24.0658L28.7528 21.8354L18.2733 32.1346L32.6067 24.0658Z" fill="white"/>
<path d="M14.3373 17.9159L28.7527 21.8354L14.3209 13.4879L14.3373 17.9159Z" fill="white"/>
<path d="M23.5048 20.9991H25.7188L14.3373 17.9159L15.1737 20.9827L23.472 20.9991H23.5048Z" fill="white"/>
<path d="M16.3217 22.9178L15.1737 20.9827L18.2733 32.1346L20.4545 29.9862L16.3545 22.9506L16.3217 22.9178Z" fill="white"/>
<path d="M25.7188 20.999L20.4545 29.9861L28.7528 21.8354L25.7188 20.999Z" fill="white"/>
<path d="M23.5048 20.9991L15.1736 20.9827L16.3544 22.9506L23.5048 20.9991Z" fill="white"/>
<path d="M21.5696 28.1002L16.3544 22.9507L20.4544 29.9862L21.5696 28.1002Z" fill="white"/>
<path d="M25.7187 20.999H23.5048L21.5696 28.1002L25.7187 20.999Z" fill="white"/>
<path d="M0.397376 35.8901H8.48251L15.9116 7.40356L0.0529804 35.2997C-0.0618186 35.4965 0.0201797 35.7425 0.200578 35.8409C0.266178 35.8737 0.331777 35.8901 0.397376 35.8901Z" fill="url(#paint0_linear)"/>
<path d="M36.9854 28.4282L8.48248 35.8902H40.5934C40.8066 35.8902 40.987 35.7098 40.987 35.4966C40.987 35.431 40.9706 35.349 40.9378 35.2998L36.9854 28.4282Z" fill="url(#paint1_linear)"/>
<path d="M32.6067 24.0658L36.9855 28.4282L20.7004 0.220444C20.5856 0.0236455 20.3396 -0.0419529 20.1592 0.0728461C20.0936 0.105646 20.0444 0.154844 20.0116 0.220444L15.928 7.41998L32.6067 24.0494V24.0658Z" fill="url(#paint2_linear)"/>
<path d="M8.48248 35.8901L14.3536 34.3485L14.3208 13.4879L8.48248 35.8901Z" fill="url(#paint3_linear)"/>
<path d="M14.3208 13.4879L32.6066 24.0658L15.9116 7.40356L14.3208 13.4879Z" fill="url(#paint4_linear)"/>
<path d="M14.3536 34.3485L36.9854 28.4282L32.6067 24.0658L14.3536 34.3485Z" fill="url(#paint5_linear)"/>
<path d="M14.3537 34.3486L18.2732 32.1346L14.3373 17.9159L14.3537 34.3486Z" fill="url(#paint6_linear)"/>
<path d="M32.6067 24.0658L28.7528 21.8354L18.2733 32.1346L32.6067 24.0658Z" fill="url(#paint7_linear)"/>
<path d="M14.3373 17.9159L28.7527 21.8354L14.3209 13.4879L14.3373 17.9159Z" fill="url(#paint8_linear)"/>
<path d="M23.5048 20.9991H25.7188L14.3373 17.9159L15.1737 20.9827L23.472 20.9991H23.5048Z" fill="url(#paint9_linear)"/>
<path d="M16.3217 22.9178L15.1737 20.9827L18.2733 32.1346L20.4545 29.9862L16.3545 22.9506L16.3217 22.9178Z" fill="url(#paint10_linear)"/>
<path d="M25.7188 20.999L20.4545 29.9861L28.7528 21.8354L25.7188 20.999Z" fill="url(#paint11_linear)"/>
<path d="M23.5048 20.9991L15.1736 20.9827L16.3544 22.9506L23.5048 20.9991Z" fill="url(#paint12_linear)"/>
<path d="M21.5696 28.1002L16.3544 22.9507L20.4544 29.9862L21.5696 28.1002Z" fill="url(#paint13_linear)"/>
<path d="M25.7187 20.999H23.5048L21.5696 28.1002L25.7187 20.999Z" fill="url(#paint14_linear)"/>
<defs>
<linearGradient id="paint0_linear" x1="9.46302" y1="35.7855" x2="6.58344" y2="8.37857" gradientUnits="userSpaceOnUse">
<stop stop-color="#C3C4C3"/>
<stop offset="0.09" stop-color="#D8D8D8"/>
<stop offset="0.21" stop-color="#E9EAE9"/>
<stop offset="0.36" stop-color="#F6F6F6"/>
<stop offset="0.55" stop-color="#FDFDFD"/>
<stop offset="1" stop-color="white"/>
</linearGradient>
<linearGradient id="paint1_linear" x1="36.261" y1="27.423" x2="14.054" y2="43.5583" gradientUnits="userSpaceOnUse">
<stop stop-color="#C3C4C3"/>
<stop offset="0.09" stop-color="#D8D8D8"/>
<stop offset="0.21" stop-color="#E9EAE9"/>
<stop offset="0.36" stop-color="#F6F6F6"/>
<stop offset="0.55" stop-color="#FDFDFD"/>
<stop offset="1" stop-color="white"/>
</linearGradient>
<linearGradient id="paint2_linear" x1="15.498" y1="8.33423" x2="40.8941" y2="19.6408" gradientUnits="userSpaceOnUse">
<stop stop-color="#C3C4C3"/>
<stop offset="0.09" stop-color="#D8D8D8"/>
<stop offset="0.21" stop-color="#E9EAE9"/>
<stop offset="0.36" stop-color="#F6F6F6"/>
<stop offset="0.55" stop-color="#FDFDFD"/>
<stop offset="1" stop-color="white"/>
</linearGradient>
<linearGradient id="paint3_linear" x1="12.5348" y1="35.4626" x2="10.2702" y2="13.9171" gradientUnits="userSpaceOnUse">
<stop stop-color="#B7B8B8"/>
<stop offset="0.11" stop-color="#C9CACA"/>
<stop offset="0.3" stop-color="#E1E1E1"/>
<stop offset="0.51" stop-color="#F2F2F2"/>
<stop offset="0.73" stop-color="#FCFCFC"/>
<stop offset="1" stop-color="white"/>
</linearGradient>
<linearGradient id="paint4_linear" x1="14.1963" y1="11.2478" x2="34.3236" y2="20.2085" gradientUnits="userSpaceOnUse">
<stop stop-color="#B7B8B8"/>
<stop offset="0.11" stop-color="#C9CACA"/>
<stop offset="0.3" stop-color="#E1E1E1"/>
<stop offset="0.51" stop-color="#F2F2F2"/>
<stop offset="0.73" stop-color="#FCFCFC"/>
<stop offset="1" stop-color="white"/>
</linearGradient>
<linearGradient id="paint5_linear" x1="34.485" y1="24.9805" x2="16.8541" y2="37.7896" gradientUnits="userSpaceOnUse">
<stop stop-color="#B7B8B8"/>
<stop offset="0.11" stop-color="#C9CACA"/>
<stop offset="0.3" stop-color="#E1E1E1"/>
<stop offset="0.51" stop-color="#F2F2F2"/>
<stop offset="0.73" stop-color="#FCFCFC"/>
<stop offset="1" stop-color="white"/>
</linearGradient>
<linearGradient id="paint6_linear" x1="16.5203" y1="33.7294" x2="12.1641" y2="18.5367" gradientUnits="userSpaceOnUse">
<stop stop-color="#B7B8B8"/>
<stop offset="0.21" stop-color="#CECFCF"/>
<stop offset="0.52" stop-color="#E9E9E9"/>
<stop offset="0.79" stop-color="#F9F9F9"/>
<stop offset="1" stop-color="white"/>
</linearGradient>
<linearGradient id="paint7_linear" x1="30.9207" y1="22.426" x2="19.9609" y2="33.7728" gradientUnits="userSpaceOnUse">
<stop stop-color="#B7B8B8"/>
<stop offset="0.21" stop-color="#CECFCF"/>
<stop offset="0.52" stop-color="#E9E9E9"/>
<stop offset="0.79" stop-color="#F9F9F9"/>
<stop offset="1" stop-color="white"/>
</linearGradient>
<linearGradient id="paint8_linear" x1="13.766" y1="15.7233" x2="29.3158" y2="19.6001" gradientUnits="userSpaceOnUse">
<stop stop-color="#B7B8B8"/>
<stop offset="0.21" stop-color="#CECFCF"/>
<stop offset="0.52" stop-color="#E9E9E9"/>
<stop offset="0.79" stop-color="#F9F9F9"/>
<stop offset="1" stop-color="white"/>
</linearGradient>
<linearGradient id="paint9_linear" x1="14.2117" y1="19.4066" x2="25.7681" y2="20.3167" gradientUnits="userSpaceOnUse">
<stop stop-color="#ABACAC"/>
<stop offset="0.19" stop-color="#BDBEBE"/>
<stop offset="0.73" stop-color="#EDEDED"/>
<stop offset="1" stop-color="white"/>
</linearGradient>
<linearGradient id="paint10_linear" x1="19.5808" y1="31.5027" x2="14.5905" y2="21.2695" gradientUnits="userSpaceOnUse">
<stop stop-color="#ABACAC"/>
<stop offset="0.19" stop-color="#BDBEBE"/>
<stop offset="0.73" stop-color="#EDEDED"/>
<stop offset="1" stop-color="white"/>
</linearGradient>
<linearGradient id="paint11_linear" x1="27.5213" y1="20.9969" x2="21.145" y2="30.4481" gradientUnits="userSpaceOnUse">
<stop stop-color="#ABACAC"/>
<stop offset="0.19" stop-color="#BDBEBE"/>
<stop offset="0.73" stop-color="#EDEDED"/>
<stop offset="1" stop-color="white"/>
</linearGradient>
<linearGradient id="paint12_linear" x1="15.6916" y1="22.3554" x2="22.9852" y2="19.6296" gradientUnits="userSpaceOnUse">
<stop stop-color="#9FA0A0"/>
<stop offset="0.17" stop-color="#A5A6A6"/>
<stop offset="0.4" stop-color="#B5B6B6"/>
<stop offset="0.66" stop-color="#D0D1D1"/>
<stop offset="0.94" stop-color="#F6F6F6"/>
<stop offset="1" stop-color="white"/>
</linearGradient>
<linearGradient id="paint13_linear" x1="21.3441" y1="28.9376" x2="15.4697" y2="24.0076" gradientUnits="userSpaceOnUse">
<stop stop-color="#9FA0A0"/>
<stop offset="0.17" stop-color="#A5A6A6"/>
<stop offset="0.4" stop-color="#B5B6B6"/>
<stop offset="0.66" stop-color="#D0D1D1"/>
<stop offset="0.94" stop-color="#F6F6F6"/>
<stop offset="1" stop-color="white"/>
</linearGradient>
<linearGradient id="paint14_linear" x1="24.3084" y1="20.7578" x2="22.9701" y2="28.3496" gradientUnits="userSpaceOnUse">
<stop stop-color="#9FA0A0"/>
<stop offset="0.17" stop-color="#A5A6A6"/>
<stop offset="0.4" stop-color="#B5B6B6"/>
<stop offset="0.66" stop-color="#D0D1D1"/>
<stop offset="0.94" stop-color="#F6F6F6"/>
<stop offset="1" stop-color="white"/>
</linearGradient>
</defs>
</svg>
